<?xml version="1.0" encoding="utf-8"?>
<!-- Svg Vector Icons : http://www.onlinewebfonts.com/icon -->
<!DOCTYPE svg PUBLIC "-//W3C//DTD SVG 1.1//EN" "http://www.w3.org/Graphics/SVG/1.1/DTD/svg11.dtd">
<svg version="1.1" xmlns="http://www.w3.org/2000/svg" xmlns:xlink="http://www.w3.org/1999/xlink" x="0px" y="0px" viewBox="0 0 1000 1000" enable-background="new 0 0 1000 1000" xml:space="preserve">
<metadata> Svg Vector Icons : http://www.onlinewebfonts.com/icon </metadata>
<g><path d="M936.1,63.9C900.2,28,856.9,10,806.3,10H193.8c-50.6,0-93.9,18-129.8,53.9C28,99.8,10,143.1,10,193.7v612.5c0,50.6,18,93.9,53.9,129.8C99.9,972,143.1,990,193.8,990h612.5c50.6,0,93.9-18,129.8-53.9C972,900.1,990,856.9,990,806.3V193.7C990,143.1,972,99.8,936.1,63.9z M742.1,682.8c-2.3,8.3-3.5,13.9-3.5,16.9c-2.1,7.7-4.8,22.8-8,45.3c-3.2,22.5-8,40.7-14.3,54.6c-6.4,13.8-16.8,24.8-31.3,32.8c-76.1,42.1-167.2,53.4-273.1,33.8c-66.8-11.5-110.2-34.4-130.2-68.9c-6.4-23.8-15.1-68.5-26.2-134l3.2-7.7l7.7-3.8c68.9,45.1,146.7,67.6,233.5,67.6c86.8,0,164.4-22.5,232.9-67.6c6.4,1.7,10.1,5.2,11.2,10.5C745.1,667.7,744.5,674.5,742.1,682.8z M821.6,257.5c-13.6,87.6-30.6,188.2-51,301.8c-1.7,8.9-5.9,17.4-12.4,25.5c-6.6,8.1-13.2,14.2-19.8,18.5c-6.6,4.3-15,9.1-25.2,14.7c-77,38.7-170.6,52.1-280.7,40.2c-76.1-8.5-136.5-29.8-181.2-63.8c-5.5-4.7-10.2-10.6-14-17.9c-3.8-7.2-6.4-13-7.7-17.2c-1.3-4.3-2.8-11.9-4.5-23c-1.7-11.1-2.8-17.7-3.2-19.8c-2.6-15.3-7.7-44.5-15.3-87.4c-7.7-43-13.8-79.3-18.5-109.1c-4.7-29.8-8.7-59.1-12.1-88c1.7-12.8,8-24.2,18.8-34.4c10.8-10.2,20.8-17.4,30-21.7c9.1-4.3,21.8-9.6,38-16c40-14.5,88.1-24.2,144.2-29.3c115.3-11.5,218.8-3.8,310.7,23c47.6,14,80.6,32.8,98.9,56.1C823.7,219.1,825.4,235,821.6,257.5z"/><path d="M550.1,397.9c-30.4-17.4-60.5-19.6-90.3-6.4c-19.1,8.5-34.6,22.1-46.3,40.8c-11.7,18.7-17.1,38.5-16.3,59.3c1.3,28.5,13.2,52.5,35.7,72.1c22.5,19.6,47.9,28.1,75.9,25.5c28.1-2.6,51.5-15.5,70.2-38.9c18.7-23.4,26.4-49.1,23-77.2C597.8,440.4,580.5,415.3,550.1,397.9z M528.1,529.3c-17.9,11.5-35.1,12.3-51.7,2.5c-18.3-7.7-27.5-22.6-27.8-45c-0.2-22.3,8.8-37.8,27.1-46.3c15.3-9.4,31.7-9.1,49.1,0.6c17.4,9.8,26.2,23.8,26.2,42.1C553.6,502.5,545.9,517.9,528.1,529.3z"/><path d="M687,203.6c-10.6-5.3-19.8-8.7-27.4-10.2c-7.7-1.5-18.5-3.3-32.5-5.4c-89.3-14.5-176.1-14.2-260.3,0.6c-12.8,2.1-22.8,3.9-30,5.4c-7.2,1.5-15.7,4.8-25.5,9.9c-9.8,5.1-17.4,11.7-23,19.8c8.9,8.5,20.5,15.4,34.8,20.7c14.2,5.3,25.4,8.7,33.5,10.2c8.1,1.5,21.5,3.5,40.2,6.1c71.9,8.5,140.8,8.5,206.7,0c18.7-2.1,32.2-3.8,40.5-5.1c8.3-1.3,19.6-4.7,33.8-10.2c14.2-5.5,25.6-12.8,34.1-21.7C705.9,215.6,697.6,209,687,203.6z"/></g>
</svg>