<?xml version="1.0" encoding="iso-8859-1"?>
<!-- Generator: Adobe Illustrator 16.0.0, SVG Export Plug-In . SVG Version: 6.00 Build 0)  -->
<!DOCTYPE svg PUBLIC "-//W3C//DTD SVG 1.1//EN" "http://www.w3.org/Graphics/SVG/1.1/DTD/svg11.dtd">
<svg version="1.1" id="Capa_1" xmlns="http://www.w3.org/2000/svg" xmlns:xlink="http://www.w3.org/1999/xlink" x="0px" y="0px"
	 width="612px" height="612px" viewBox="0 0 612 612" style="enable-background:new 0 0 612 612;" xml:space="preserve">
<g>
	<g>
		<path d="M41.19,500.53h23.696c9.051,0,16.395-7.34,16.395-16.396c0-9.051-7.339-16.395-16.395-16.395H41.19v-73.22h23.696
			c9.051,0,16.395-7.34,16.395-16.396c0-9.051-7.339-16.395-16.395-16.395H41.19v-73.215h23.696c9.051,0,16.395-7.339,16.395-16.395
			c0-9.051-7.339-16.395-16.395-16.395H41.19v-73.22h23.696c9.051,0,16.395-7.339,16.395-16.395s-7.339-16.395-16.395-16.395H41.19
			V76.5h23.696c9.056,0,16.395-7.339,16.395-16.395S73.942,43.71,64.886,43.71H41.19V0H0v570.81V612l0,0h41.19l0,0H612v-41.19H41.19
			V500.53z"/>
		<path d="M543.59,132.034c32.498,0,58.848-26.345,58.848-58.848s-26.345-58.843-58.848-58.843s-58.848,26.345-58.848,58.848
			c0,22.271,12.379,41.645,30.619,51.638l-33.971,130.657c-1.568-0.125-3.142-0.239-4.743-0.239
			c-32.498,0-58.848,26.345-58.848,58.848c0,8.773,1.975,17.069,5.417,24.552l-84.25,57.647
			c-10.604-10.342-25.078-16.734-41.057-16.734c-8.754,0-17.036,1.965-24.504,5.394l-68.501-100.301
			c11.068-10.701,17.973-25.67,17.973-42.281c0-32.498-26.345-58.848-58.848-58.848c-32.498,0.005-58.843,26.35-58.843,58.848
			s26.345,58.848,58.848,58.848c7.277,0,14.215-1.382,20.646-3.796l69.476,101.731c-9.357,10.418-15.094,24.149-15.094,39.249
			c0,32.503,26.345,58.848,58.848,58.848s58.848-26.345,58.848-58.848c0-7.898-1.583-15.42-4.403-22.3l85.092-58.222
			c10.408,9.334,24.126,15.057,39.206,15.057c32.503,0,58.848-26.345,58.848-58.848c0-22.481-12.618-42.003-31.146-51.91
			l33.909-130.413C540.019,131.924,541.792,132.034,543.59,132.034z M188.252,260.268c-4.843,6.536-12.24,11.059-20.722,12.044
			c-1.147,0.134-2.314,0.22-3.495,0.22c-16.629,0-30.16-13.531-30.16-30.16c0-16.629,13.531-30.16,30.16-30.16
			c16.629,0,30.16,13.531,30.16,30.16C194.19,249.074,191.967,255.257,188.252,260.268z M297.91,468.562
			c-16.629,0-30.16-13.531-30.16-30.16c0-5.116,1.286-9.931,3.543-14.152c3.877-7.263,10.643-12.732,18.752-14.932
			c2.51-0.68,5.14-1.076,7.865-1.076c6.058,0,11.695,1.812,16.429,4.9c6.827,4.457,11.732,11.595,13.229,19.914
			c0.311,1.736,0.502,3.52,0.502,5.341C328.065,455.031,314.539,468.562,297.91,468.562z M506.812,314.09
			c0,16.629-13.531,30.16-30.16,30.16c-5.102,0-9.906-1.286-14.129-3.533c-7.268-3.873-12.746-10.634-14.95-18.738
			c-0.685-2.52-1.081-5.153-1.081-7.889c0-15.721,12.097-28.654,27.469-30.021c0.889-0.081,1.783-0.139,2.691-0.139
			c7.698,0,14.712,2.926,20.048,7.688C502.887,297.15,506.812,305.159,506.812,314.09z M513.435,73.191
			c0-16.629,13.531-30.16,30.16-30.16s30.155,13.531,30.155,30.16c0,15.926-12.417,28.975-28.07,30.055
			c-0.693,0.048-1.382,0.105-2.085,0.105c-7.933,0-15.138-3.103-20.526-8.128C517.154,89.71,513.435,81.889,513.435,73.191z"/>
	</g>
</g>
<g>
</g>
<g>
</g>
<g>
</g>
<g>
</g>
<g>
</g>
<g>
</g>
<g>
</g>
<g>
</g>
<g>
</g>
<g>
</g>
<g>
</g>
<g>
</g>
<g>
</g>
<g>
</g>
<g>
</g>
</svg>
